#!OML:ASF H:\Pregnant\Project 1\Capture day 1\Session 1\femalepreg.ASF
:FULLY-SPECIFIED
:DEGREES
1047
root 3.00829 15.1002 21.7106 -158.988 182.727 -182.077
lowerback -20.5176 0.72122 -7.07345
upperback -2.33758 2.85212 -3.27321
thorax 8.76797 1.17565 1.22987
lowerneck -17.1723 -1.61672 0.522876
upperneck 39.9887 -6.62662 9.16138
head 18.3177 -1.30218 2.88018
rclavicle 3.81667e-014 -4.45278e-014
rhumerus -31.8007 3.31026 -89.3778
rradius 27.7094
rwrist -5.77681
rhand -12.0089 -17.2551
rfingers 7.12502
rthumb 14.0484 -46.7603
lclavicle 3.81667e-014 -4.45278e-014
lhumerus -30.7258 -13.3152 83.2021
lradius 28.9604
lwrist 35.1088
lhand -24.3296 -5.97519
lfingers 7.12502
lthumb 2.159 23.9936
rfemur -12.5021 15.5684 29.4805
rtibia 35.4147
rfoot -16.0554 -2.40857
rtoes -21.841
lfemur -49.875 -13.2694 -14.2485
ltibia 26.6948
lfoot 3.77605 2.05862
ltoes -7.71948
1048
root 3.00289 15.1106 21.8234 -158.871 182.674 -182.038
lowerback -20.466 0.757399 -7.54477
upperback -2.34302 3.01749 -3.45997
thorax 8.70973 1.24376 1.33326
lowerneck -17.0766 -1.69554 0.377176
upperneck 39.9841 -6.77369 9.38254
head 18.3248 -1.35576 2.98376
rclavicle 3.77691e-015 -2.70347e-014
rhumerus -32.11 4.10972 -89.6599
rradius 27.6764
rwrist -5.81823
rhand -11.2461 -17.124
rfingers 7.12502
rthumb 14.7834 -46.5768
lclavicle 3.77691e-015 -2.70347e-014
lhumerus -30.1847 -13.2812 83.0502
lradius 28.5919
lwrist 35.2008
lhand -24.3752 -5.94249
lfingers 7.12502
lthumb 2.11502 24.0268
rfemur -13.3091 14.7013 29.384
rtibia 36.9996
rfoot -14.9708 -1.15489
rtoes -21.3358
lfemur -49.7293 -13.2973 -14.4077
ltibia 27.0656
lfoot 3.16694 2.02538
ltoes -7.3733
1049
root 3.00065 15.1221 21.9352 -158.73 182.654 -182.068
lowerback -20.4486 0.81292 -7.89423
upperback -2.34167 3.182 -3.619
thorax 8.68103 1.31409 1.3986
lowerneck -17.0022 -1.74763 0.233846
upperneck 39.98 -6.85809 9.5505
head 18.3284 -1.39068 3.07405
rclavicle 7.95139e-015 3.33958e-014
rhumerus -32.3594 5.00467 -89.9449
rradius 27.6201
rwrist -5.84944
rhand -10.5944 -16.9599
rfingers 7.12502
rthumb 15.4112 -46.3654
lclavicle 7.95139e-015 3.33958e-014
lhumerus -29.6214 -13.154 82.8901
lradius 28.228
lwrist 35.2399
lhand -24.4207 -5.84558
lfingers 7.12502
lthumb 2.07106 24.1241
rfemur -14.2051 13.7956 29.3074
rtibia 38.6125
rfoot -13.6314 0.107889
rtoes -20.278
lfemur -49.6221 -13.2709 -14.51
ltibia 27.4796
lfoot 2.53355 2.01498
ltoes -7.09911
1050
root 3.00125 15.1351 22.0461 -158.573 182.665 -182.155
lowerback -20.4532 0.885788 -8.13885
upperback -2.33751 3.34629 -3.75568
thorax 8.67095 1.38677 1.42983
lowerneck -16.9459 -1.77277 0.105081
upperneck 39.9737 -6.88404 9.66619
head 18.3253 -1.4066 3.1481
rclavicle 1.09332e-014 -2.22639e-014
rhumerus -32.5601 5.97087 -90.2295
rradius 27.5444
rwrist -5.84846
rhand -10.0355 -16.7734
rfingers 7.12502
rthumb 15.9495 -46.1367
lclavicle 1.09332e-014 -2.22639e-014
lhumerus -29.055 -12.9467 82.7236
lradius 27.8817
lwrist 35.2225
lhand -24.4586 -5.71748
lfingers 7.12502
lthumb 2.03444 24.2526
rfemur -15.1733 12.8934 29.2462
rtibia 40.2429
rfoot -12.0415 1.22322
rtoes -18.8194
lfemur -49.5251 -13.1898 -14.5754
ltibia 27.9077
lfoot 1.88604 2.01261
ltoes -6.90693
1051
root 3.00407 15.1496 22.1556 -158.413 182.704 -182.281
lowerback -20.456 0.967166 -8.30943
upperback -2.33253 3.50292 -3.87022
thorax 8.6637 1.45782 1.44155
lowerneck -16.9157 -1.77041 -0.00138913
upperneck 39.9655 -6.85362 9.72811
head 18.3174 -1.40302 3.20327
rclavicle 1.59028e-014 -1.27222e-014
rhumerus -32.7216 7.01447 -90.5156
rradius 27.4647
rwrist -5.81769
rhand -9.55491 -16.5945
rfingers 7.12502
rthumb 16.4122 -45.9202
lclavicle 1.59028e-014 -1.27222e-014
lhumerus -28.5046 -12.6616 82.5546
lradius 27.5713
lwrist 35.1514
lhand -24.4905 -5.56315
lfingers 7.12502
lthumb 2.00365 24.4072
rfemur -16.1977 12.0231 29.1935
rtibia 41.879
rfoot -10.2665 2.04556
rtoes -17.3479
lfemur -49.4104 -13.0572 -14.6243
ltibia 28.3157
lfoot 1.2398 2.01192
ltoes -6.76763
1052
root 3.00804 15.1651 22.2619 -158.262 182.765 -182.416
lowerback -20.4235 1.04789 -8.44866
upperback -2.32793 3.64601 -3.9702
thorax 8.63853 1.52404 1.44671
lowerneck -16.9055 -1.74015 -0.0851941
upperneck 39.9468 -6.76946 9.74673
head 18.299 -1.37984 3.24337
rclavicle -7.15625e-015 2.8625e-014
rhumerus -32.8516 8.1213 -90.8051
rradius 27.3967
rwrist -5.76325
rhand -9.13485 -16.458
rfingers 7.12502
rthumb 16.8166 -45.7497
lclavicle -7.15625e-015 2.8625e-014
lhumerus -27.9804 -12.3279 82.3854
lradius 27.3083
lwrist 35.0433
lhand -24.5288 -5.40106
lfingers 7.12502
lthumb 1.96661 24.5696
rfemur -17.2736 11.2076 29.1347
rtibia 43.5164
rfoot -8.43923 2.46048
rtoes -16.3972
lfemur -49.2572 -12.8769 -14.6868
ltibia 28.6688
lfoot 0.617563 1.99212
ltoes -6.69029
1053
root 3.01266 15.1816 22.3657 -158.128 182.844 -182.547
lowerback -20.3482 1.12781 -8.56822
upperback -2.32705 3.7773 -4.06333
thorax 8.58732 1.58647 1.4435
lowerneck -16.9237 -1.69082 -0.130538
upperneck 39.9304 -6.65167 9.71754
head 18.2811 -1.34273 3.2602
rclavicle -1.03368e-014 -2.38542e-014
rhumerus -32.9723 9.28461 -91.1052
rradius 27.3617
rwrist -5.70562
rhand -8.76431 -16.3853
rfingers 7.12502
rthumb 17.1733 -45.6464
lclavicle -1.03368e-014 -2.38542e-014
lhumerus -27.5132 -11.9894 82.2239
lradius 27.1288
lwrist 34.9423
lhand -24.5887 -5.23455
lfingers 7.12502
lthumb 1.90875 24.7367
rfemur -18.3803 10.4554 29.0637
rtibia 45.1462
rfoot -6.72969 2.47429
rtoes -16.208
lfemur -49.042 -12.6602 -14.7754
ltibia 28.9417
lfoot 0.02519 1.95435
ltoes -6.63899
1054
root 3.01735 15.1991 22.4673 -158.016 182.931 -182.652
lowerback -20.2283 1.20109 -8.68935
upperback -2.32548 3.89466 -4.15833
thorax 8.51365 1.64333 1.43352
lowerneck -16.9691 -1.62524 -0.136079
upperneck 39.9141 -6.50855 9.6491
head 18.2639 -1.2938 3.25592
rclavicle 2.06736e-014 1.74931e-014
rhumerus -33.0838 10.4795 -91.4155
rradius 27.3706
rwrist -5.64941
rhand -8.46668 -16.32
rfingers 7.12502
rthumb 17.4598 -45.5559
lclavicle 2.06736e-014 1.74931e-014
lhumerus -27.1043 -11.6679 82.0694
lradius 27.0366
lwrist 34.8651
lhand -24.6811 -5.08285
lfingers 7.12502
lthumb 1.81957 24.8891
rfemur -19.5102 9.7551 28.969
rtibia 46.7682
rfoot -5.30305 2.2005
rtoes -16.6519
lfemur -48.7516 -12.4215 -14.9088
ltibia 29.113
lfoot -0.525997 1.89039
ltoes -6.61288
1055
root 3.02172 15.2175 22.5675 -157.919 183.023 -182.717
lowerback -20.0861 1.2668 -8.81713
upperback -2.32157 4.00187 -4.26808
thorax 8.43184 1.69581 1.40728
lowerneck -17.019 -1.5496 -0.107947
upperneck 39.8803 -6.35466 9.56497
head 18.2346 -1.23771 3.2388
rclavicle -4.05521e-014 8.74653e-014
rhumerus -33.187 11.6705 -91.7385
rradius 27.4324
rwrist -5.59218
rhand -8.24027 -16.2646
rfingers 7.12502
rthumb 17.6776 -45.481
lclavicle -4.05521e-014 8.74653e-014
lhumerus -26.7437 -11.4071 81.9192
lradius 27.0261
lwrist 34.8488
lhand -24.8233 -4.96183
lfingers 7.12502
lthumb 1.68218 25.0113
rfemur -20.662 9.09958 28.8394
rtibia 48.3849
rfoot -4.28809 1.74271
rtoes -17.4309
lfemur -48.3867 -12.1746 -15.0961
ltibia 29.1725
lfoot -1.03295 1.79886
ltoes -6.60026
1056
root 3.02557 15.2368 22.6667 -157.838 183.116 -182.727
lowerback -19.9264 1.3283 -8.95671
upperback -2.31319 4.10648 -4.40679
thorax 8.34715 1.74731 1.35434
lowerneck -17.0705 -1.4718 -0.048065
upperneck 39.8299 -6.20873 9.48163
head 18.1962 -1.18014 3.21353
rclavicle -2.8625e-014 2.06736e-014
rhumerus -33.279 12.7954 -92.0653
rradius 27.5489
rwrist -5.49848
rhand -8.04726 -16.2349
rfingers 7.12502
rthumb 17.8634 -45.4345
lclavicle -2.8625e-014 2.06736e-014
lhumerus -26.4214 -11.2192 81.7637
lradius 27.0865
lwrist 34.8914
lhand -25.0155 -4.89063
lfingers 7.12502
lthumb 1.49656 25.0839
rfemur -21.8362 8.47039 28.6621
rtibia 50.0054
rfoot -3.74231 1.15444
rtoes -18.1929
lfemur -47.9417 -11.9305 -15.3502
ltibia 29.1109
lfoot -1.4902 1.67973
ltoes -6.60058
